<svg width="19" height="23" viewBox="0 0 19 23" fill="none" xmlns="http://www.w3.org/2000/svg">
<path d="M1.00102 21.125C1.00102 21.608 1.39302 22 1.87602 22H14.3034C15.6602 22 16.1677 21.5742 16.1677 20.1333V18.4475M1.00102 21.125C1.00102 20.4288 1.27758 19.7611 1.76986 19.2688C2.26215 18.7766 2.92982 18.5 3.62602 18.5H15.47C15.7337 18.5 15.9662 18.4825 16.1677 18.4475M1.00102 21.125V4.73333C1.00102 3.408 0.917018 1.94617 2.27502 1.25433C2.77435 1 3.42768 1 4.73435 1H15.4677C16.9097 1 17.3344 1.50983 17.3344 2.86667V16.6333C17.3344 17.7942 17.0054 18.2958 16.1677 18.4475" stroke="white" stroke-width="1.5" stroke-linecap="round" stroke-linejoin="round"/>
</svg>
