<svg width="216" height="44" viewBox="0 0 216 44" fill="none" xmlns="http://www.w3.org/2000/svg">
<rect y="3.67151" width="57.8301" height="36.7175" rx="0.917939" fill="#054BB4"/>
<path d="M18.4614 32.2056C16.9536 32.2056 15.6023 31.9608 14.4078 31.4713C13.2133 30.9817 12.2537 30.2571 11.5291 29.2976C10.8242 28.338 10.4521 27.1827 10.4129 25.8315H15.759C15.8373 26.5952 16.1017 27.1827 16.5521 27.5939C17.0025 27.9855 17.59 28.1814 18.3145 28.1814C19.0587 28.1814 19.6462 28.0149 20.077 27.682C20.5078 27.3295 20.7232 26.8498 20.7232 26.2427C20.7232 25.7335 20.547 25.3125 20.1945 24.9796C19.8616 24.6467 19.4406 24.3725 18.9314 24.1571C18.4418 23.9417 17.7369 23.6969 16.8165 23.4228C15.4848 23.0115 14.398 22.6003 13.556 22.1891C12.7139 21.7778 11.9893 21.1708 11.3823 20.3679C10.7752 19.565 10.4717 18.5173 10.4717 17.2249C10.4717 15.3058 11.1669 13.8077 12.5572 12.7306C13.9476 11.634 15.759 11.0857 17.9914 11.0857C20.263 11.0857 22.094 11.634 23.4844 12.7306C24.8748 13.8077 25.6189 15.3155 25.7168 17.2542H20.2826C20.2434 16.5884 19.9987 16.0695 19.5483 15.6974C19.0979 15.3058 18.5202 15.1099 17.8152 15.1099C17.2081 15.1099 16.7186 15.2764 16.3465 15.6093C15.9744 15.9226 15.7884 16.3828 15.7884 16.9899C15.7884 17.6557 16.1017 18.1746 16.7284 18.5467C17.355 18.9188 18.3341 19.3202 19.6658 19.751C20.9974 20.2014 22.0744 20.6322 22.8969 21.0435C23.739 21.4547 24.4635 22.052 25.0706 22.8353C25.6776 23.6186 25.9812 24.6271 25.9812 25.8608C25.9812 27.0358 25.6776 28.103 25.0706 29.0626C24.4831 30.0221 23.6215 30.7859 22.4857 31.3538C21.3499 31.9217 20.0085 32.2056 18.4614 32.2056ZM41.3213 32L34.389 22.894V32H29.3661V11.3794H34.389V20.4266L41.2626 11.3794H47.1667L39.177 21.4841L47.4605 32H41.3213Z" fill="white"/>
<path d="M72.1573 32.2056C70.2186 32.2056 68.4366 31.7552 66.8113 30.8544C65.2055 29.9536 63.9228 28.7003 62.9633 27.0945C62.0233 25.4692 61.5533 23.648 61.5533 21.631C61.5533 19.6139 62.0233 17.8025 62.9633 16.1968C63.9228 14.591 65.2055 13.3377 66.8113 12.4369C68.4366 11.5361 70.2186 11.0857 72.1573 11.0857C74.096 11.0857 75.8682 11.5361 77.474 12.4369C79.0994 13.3377 80.3723 14.591 81.2927 16.1968C82.2326 17.8025 82.7026 19.6139 82.7026 21.631C82.7026 23.648 82.2326 25.4692 81.2927 27.0945C80.3527 28.7003 79.0798 29.9536 77.474 30.8544C75.8682 31.7552 74.096 32.2056 72.1573 32.2056ZM72.1573 27.6233C73.8023 27.6233 75.1143 27.075 76.0934 25.9783C77.0922 24.8817 77.5915 23.4326 77.5915 21.631C77.5915 19.8098 77.0922 18.3607 76.0934 17.2836C75.1143 16.187 73.8023 15.6387 72.1573 15.6387C70.4928 15.6387 69.1612 16.1772 68.1625 17.2542C67.1833 18.3313 66.6938 19.7902 66.6938 21.631C66.6938 23.4522 67.1833 24.9111 68.1625 26.0077C69.1612 27.0847 70.4928 27.6233 72.1573 27.6233ZM95.543 32.2056C93.6043 32.2056 91.8223 31.7552 90.1969 30.8544C88.5911 29.9536 87.3084 28.7003 86.3489 27.0945C85.4089 25.4692 84.9389 23.648 84.9389 21.631C84.9389 19.6139 85.4089 17.8025 86.3489 16.1968C87.3084 14.591 88.5911 13.3377 90.1969 12.4369C91.8223 11.5361 93.6043 11.0857 95.543 11.0857C97.4816 11.0857 99.2539 11.5361 100.86 12.4369C102.485 13.3377 103.758 14.591 104.678 16.1968C105.618 17.8025 106.088 19.6139 106.088 21.631C106.088 23.648 105.618 25.4692 104.678 27.0945C103.738 28.7003 102.465 29.9536 100.86 30.8544C99.2539 31.7552 97.4816 32.2056 95.543 32.2056ZM95.543 27.6233C97.1879 27.6233 98.4999 27.075 99.4791 25.9783C100.478 24.8817 100.977 23.4326 100.977 21.631C100.977 19.8098 100.478 18.3607 99.4791 17.2836C98.4999 16.187 97.1879 15.6387 95.543 15.6387C93.8784 15.6387 92.5468 16.1772 91.5481 17.2542C90.569 18.3313 90.0794 19.7902 90.0794 21.631C90.0794 23.4522 90.569 24.9111 91.5481 26.0077C92.5468 27.0847 93.8784 27.6233 95.543 27.6233ZM114.199 28.1226H120.779V32H109.176V11.3794H114.199V28.1226ZM128.404 11.3794V23.7165C128.404 24.9502 128.707 25.9 129.314 26.5658C129.921 27.2316 130.812 27.5645 131.987 27.5645C133.162 27.5645 134.063 27.2316 134.69 26.5658C135.316 25.9 135.63 24.9502 135.63 23.7165V11.3794H140.653V23.6871C140.653 25.5279 140.261 27.0847 139.478 28.3576C138.694 29.6305 137.637 30.59 136.305 31.2363C134.993 31.8825 133.524 32.2056 131.899 32.2056C130.274 32.2056 128.815 31.8923 127.522 31.2656C126.249 30.6194 125.241 29.6599 124.497 28.387C123.753 27.0945 123.381 25.5279 123.381 23.6871V11.3794H128.404ZM159.307 11.3794V15.4037H153.844V32H148.821V15.4037H143.357V11.3794H159.307ZM167.145 11.3794V32H162.122V11.3794H167.145ZM180.831 32.2056C178.892 32.2056 177.11 31.7552 175.485 30.8544C173.879 29.9536 172.596 28.7003 171.637 27.0945C170.697 25.4692 170.227 23.648 170.227 21.631C170.227 19.6139 170.697 17.8025 171.637 16.1968C172.596 14.591 173.879 13.3377 175.485 12.4369C177.11 11.5361 178.892 11.0857 180.831 11.0857C182.77 11.0857 184.542 11.5361 186.148 12.4369C187.773 13.3377 189.046 14.591 189.966 16.1968C190.906 17.8025 191.376 19.6139 191.376 21.631C191.376 23.648 190.906 25.4692 189.966 27.0945C189.026 28.7003 187.753 29.9536 186.148 30.8544C184.542 31.7552 182.77 32.2056 180.831 32.2056ZM180.831 27.6233C182.476 27.6233 183.788 27.075 184.767 25.9783C185.766 24.8817 186.265 23.4326 186.265 21.631C186.265 19.8098 185.766 18.3607 184.767 17.2836C183.788 16.187 182.476 15.6387 180.831 15.6387C179.166 15.6387 177.835 16.1772 176.836 17.2542C175.857 18.3313 175.367 19.7902 175.367 21.631C175.367 23.4522 175.857 24.9111 176.836 26.0077C177.835 27.0847 179.166 27.6233 180.831 27.6233ZM212.911 32H207.888L199.487 19.281V32H194.464V11.3794H199.487L207.888 24.1571V11.3794H212.911V32Z" fill="#054BB4"/>
</svg>
