<svg width="296" height="51" viewBox="0 0 296 51" fill="none" xmlns="http://www.w3.org/2000/svg">
<g opacity="0.8">
<rect y="0.0498047" width="79.5399" height="50.5015" rx="1.26254" fill="white"/>
<path d="M25.3918 40.2828C23.3179 40.2828 21.4594 39.9461 19.8164 39.2728C18.1734 38.5994 16.8537 37.6029 15.8571 36.2831C14.8875 34.9633 14.3757 33.3742 14.3219 31.5157H21.6749C21.7826 32.5662 22.1462 33.3742 22.7657 33.9398C23.3852 34.4785 24.1932 34.7478 25.1898 34.7478C26.2133 34.7478 27.0213 34.5189 27.6139 34.061C28.2064 33.5762 28.5027 32.9163 28.5027 32.0814C28.5027 31.3811 28.2603 30.802 27.7755 30.3441C27.3176 29.8862 26.7385 29.5091 26.0382 29.2129C25.3649 28.9166 24.3952 28.5799 23.1293 28.2028C21.2978 27.6372 19.803 27.0716 18.6448 26.506C17.4866 25.9404 16.4901 25.1054 15.6551 24.0011C14.8201 22.8968 14.4027 21.4558 14.4027 19.6782C14.4027 17.0386 15.3588 14.9782 17.2711 13.4968C19.1835 11.9885 21.6749 11.2343 24.7454 11.2343C27.8697 11.2343 30.3881 11.9885 32.3004 13.4968C34.2127 14.9782 35.2362 17.0521 35.3709 19.7186H27.8967C27.8428 18.8028 27.5061 18.0891 26.8866 17.5773C26.2672 17.0386 25.4726 16.7693 24.503 16.7693C23.668 16.7693 22.9947 16.9982 22.4829 17.4561C21.9712 17.8871 21.7153 18.52 21.7153 19.355C21.7153 20.2707 22.1462 20.9845 23.0081 21.4962C23.87 22.008 25.2167 22.5601 27.0482 23.1527C28.8798 23.7722 30.3611 24.3647 31.4924 24.9303C32.6505 25.496 33.6471 26.3174 34.4821 27.3948C35.317 28.4722 35.7345 29.8593 35.7345 31.5561C35.7345 33.1722 35.317 34.6401 34.4821 35.9599C33.674 37.2797 32.4889 38.3301 30.9268 39.1112C29.3646 39.8923 27.5196 40.2828 25.3918 40.2828ZM56.8334 40L47.2987 27.4756V40H40.3901V11.6383H47.2987V24.0819L56.7526 11.6383H64.8733L53.8841 25.5364L65.2773 40H56.8334Z" fill="#054BB4"/>
<path d="M99.2462 40.2828C96.5797 40.2828 94.1287 39.6633 91.8932 38.4244C89.6846 37.1854 87.9204 35.4616 86.6006 33.253C85.3078 31.0175 84.6614 28.5126 84.6614 25.7384C84.6614 22.9641 85.3078 20.4727 86.6006 18.2641C87.9204 16.0555 89.6846 14.3317 91.8932 13.0928C94.1287 11.8538 96.5797 11.2343 99.2462 11.2343C101.913 11.2343 104.35 11.8538 106.559 13.0928C108.794 14.3317 110.545 16.0555 111.811 18.2641C113.104 20.4727 113.75 22.9641 113.75 25.7384C113.75 28.5126 113.104 31.0175 111.811 33.253C110.518 35.4616 108.767 37.1854 106.559 38.4244C104.35 39.6633 101.913 40.2828 99.2462 40.2828ZM99.2462 33.9802C101.509 33.9802 103.313 33.2261 104.66 31.7177C106.034 30.2094 106.72 28.2163 106.72 25.7384C106.72 23.2335 106.034 21.2404 104.66 19.759C103.313 18.2507 101.509 17.4965 99.2462 17.4965C96.9568 17.4965 95.1253 18.2372 93.7516 19.7186C92.4049 21.2 91.7316 23.2066 91.7316 25.7384C91.7316 28.2432 92.4049 30.2498 93.7516 31.7581C95.1253 33.2395 96.9568 33.9802 99.2462 33.9802ZM131.411 40.2828C128.744 40.2828 126.293 39.6633 124.058 38.4244C121.849 37.1854 120.085 35.4616 118.765 33.253C117.473 31.0175 116.826 28.5126 116.826 25.7384C116.826 22.9641 117.473 20.4727 118.765 18.2641C120.085 16.0555 121.849 14.3317 124.058 13.0928C126.293 11.8538 128.744 11.2343 131.411 11.2343C134.077 11.2343 136.515 11.8538 138.724 13.0928C140.959 14.3317 142.71 16.0555 143.976 18.2641C145.269 20.4727 145.915 22.9641 145.915 25.7384C145.915 28.5126 145.269 31.0175 143.976 33.253C142.683 35.4616 140.932 37.1854 138.724 38.4244C136.515 39.6633 134.077 40.2828 131.411 40.2828ZM131.411 33.9802C133.673 33.9802 135.478 33.2261 136.825 31.7177C138.198 30.2094 138.885 28.2163 138.885 25.7384C138.885 23.2335 138.198 21.2404 136.825 19.759C135.478 18.2507 133.673 17.4965 131.411 17.4965C129.122 17.4965 127.29 18.2372 125.916 19.7186C124.57 21.2 123.896 23.2066 123.896 25.7384C123.896 28.2432 124.57 30.2498 125.916 31.7581C127.29 33.2395 129.122 33.9802 131.411 33.9802ZM157.071 34.667H166.121V40H150.162V11.6383H157.071V34.667ZM176.608 11.6383V28.6069C176.608 30.3037 177.025 31.61 177.86 32.5258C178.695 33.4415 179.921 33.8994 181.537 33.8994C183.153 33.8994 184.392 33.4415 185.253 32.5258C186.115 31.61 186.546 30.3037 186.546 28.6069V11.6383H193.455V28.5664C193.455 31.0983 192.916 33.2395 191.839 34.9902C190.762 36.741 189.307 38.0607 187.476 38.9496C185.671 39.8384 183.651 40.2828 181.415 40.2828C179.18 40.2828 177.173 39.8519 175.396 38.99C173.645 38.1011 172.258 36.7814 171.234 35.0306C170.211 33.253 169.699 31.0983 169.699 28.5664V11.6383H176.608ZM219.113 11.6383V17.1733H211.598V40H204.69V17.1733H197.175V11.6383H219.113ZM229.893 11.6383V40H222.984V11.6383H229.893ZM248.717 40.2828C246.05 40.2828 243.599 39.6633 241.364 38.4244C239.155 37.1854 237.391 35.4616 236.071 33.253C234.778 31.0175 234.132 28.5126 234.132 25.7384C234.132 22.9641 234.778 20.4727 236.071 18.2641C237.391 16.0555 239.155 14.3317 241.364 13.0928C243.599 11.8538 246.05 11.2343 248.717 11.2343C251.383 11.2343 253.821 11.8538 256.029 13.0928C258.265 14.3317 260.015 16.0555 261.281 18.2641C262.574 20.4727 263.221 22.9641 263.221 25.7384C263.221 28.5126 262.574 31.0175 261.281 33.253C259.989 35.4616 258.238 37.1854 256.029 38.4244C253.821 39.6633 251.383 40.2828 248.717 40.2828ZM248.717 33.9802C250.979 33.9802 252.784 33.2261 254.13 31.7177C255.504 30.2094 256.191 28.2163 256.191 25.7384C256.191 23.2335 255.504 21.2404 254.13 19.759C252.784 18.2507 250.979 17.4965 248.717 17.4965C246.427 17.4965 244.596 18.2372 243.222 19.7186C241.875 21.2 241.202 23.2066 241.202 25.7384C241.202 28.2432 241.875 30.2498 243.222 31.7581C244.596 33.2395 246.427 33.9802 248.717 33.9802ZM292.84 40H285.931L274.377 22.5063V40H267.468V11.6383H274.377L285.931 29.2129V11.6383H292.84V40Z" fill="white"/>
</g>
</svg>
