<svg width="22" height="18" viewBox="0 0 22 18" fill="none" xmlns="http://www.w3.org/2000/svg">
<path d="M8.909 0.700028C9.53328 0.30063 10.2589 0.0883789 11 0.0883789C11.7411 0.0883789 12.4667 0.30063 13.091 0.700028L21.155 5.87003C21.2603 5.93765 21.347 6.03054 21.4073 6.14026C21.4675 6.24997 21.4993 6.37301 21.4998 6.49817C21.5003 6.62332 21.4695 6.74661 21.4101 6.8568C21.3508 6.96699 21.2648 7.06058 21.16 7.12903L18 9.19403V14.751C18 14.9133 17.9474 15.0712 17.85 15.201L17.849 15.202L17.848 15.204L17.845 15.208L17.836 15.218C17.8013 15.2643 17.7646 15.309 17.726 15.352C17.6251 15.4668 17.519 15.5769 17.408 15.682C17.131 15.949 16.718 16.296 16.158 16.64C15.037 17.33 13.339 18 11 18C8.661 18 6.964 17.33 5.841 16.64C5.39149 16.3664 4.97245 16.0456 4.591 15.683C4.48069 15.5779 4.37525 15.4678 4.275 15.353C4.23206 15.3044 4.1907 15.2544 4.151 15.203L4.15 15.2C4.05263 15.0702 4 14.9123 4 14.75V9.19203L2 7.88603V13.25C2 13.4489 1.92098 13.6397 1.78033 13.7804C1.63968 13.921 1.44891 14 1.25 14C1.05109 14 0.860322 13.921 0.71967 13.7804C0.579018 13.6397 0.5 13.4489 0.5 13.25V6.50003C0.499898 6.37163 0.532762 6.24535 0.595446 6.13329C0.65813 6.02123 0.748534 5.92714 0.858 5.86003L8.909 0.700028ZM13.119 12.382C12.4887 12.793 11.7525 13.0118 11 13.0118C10.2475 13.0118 9.51133 12.793 8.881 12.382L5.5 10.174V14.47C5.53667 14.5087 5.58 14.552 5.63 14.6C5.841 14.803 6.17 15.081 6.627 15.362C7.536 15.922 8.964 16.501 11 16.501C13.036 16.501 14.464 15.921 15.373 15.362C15.7831 15.1109 16.1614 14.8114 16.5 14.47V10.174L13.119 12.382ZM12.282 1.96303C11.501 1.46303 10.499 1.46303 9.718 1.96303L2.63 6.50703L9.701 11.127C10.491 11.642 11.51 11.642 12.299 11.127L19.369 6.50703L12.282 1.96303Z" fill="#8C8C8C"/>
</svg>
