<svg width="19" height="21" viewBox="0 0 19 21" fill="none" xmlns="http://www.w3.org/2000/svg">
<path d="M17.6668 7.00001L11.6668 1.74001C11.1168 1.24805 10.4048 0.976074 9.66684 0.976074C8.92891 0.976074 8.21687 1.24805 7.66684 1.74001L1.66684 7.00001C1.34921 7.28408 1.09574 7.63256 0.923315 8.02225C0.750887 8.41194 0.663455 8.83389 0.666843 9.26001V18C0.666843 18.7957 0.982913 19.5587 1.54552 20.1213C2.10813 20.6839 2.87119 21 3.66684 21H15.6668C16.4625 21 17.2256 20.6839 17.7882 20.1213C18.3508 19.5587 18.6668 18.7957 18.6668 18V9.25001C18.6688 8.82557 18.5807 8.40555 18.4083 8.01769C18.2359 7.62983 17.9832 7.28296 17.6668 7.00001ZM11.6668 19H7.66684V14C7.66684 13.7348 7.7722 13.4804 7.95974 13.2929C8.14727 13.1054 8.40163 13 8.66684 13H10.6668C10.9321 13 11.1864 13.1054 11.3739 13.2929C11.5615 13.4804 11.6668 13.7348 11.6668 14V19ZM16.6668 18C16.6668 18.2652 16.5615 18.5196 16.374 18.7071C16.1864 18.8946 15.9321 19 15.6668 19H13.6668V14C13.6668 13.2044 13.3508 12.4413 12.7882 11.8787C12.2256 11.3161 11.4625 11 10.6668 11H8.66684C7.87119 11 7.10813 11.3161 6.54552 11.8787C5.98291 12.4413 5.66684 13.2044 5.66684 14V19H3.66684C3.40163 19 3.14727 18.8946 2.95974 18.7071C2.7722 18.5196 2.66684 18.2652 2.66684 18V9.25001C2.66702 9.10802 2.69744 8.9677 2.75606 8.83839C2.81468 8.70907 2.90017 8.59372 3.00684 8.50001L9.00684 3.25001C9.18933 3.08969 9.42393 3.00127 9.66684 3.00127C9.90975 3.00127 10.1444 3.08969 10.3268 3.25001L16.3268 8.50001C16.4335 8.59372 16.519 8.70907 16.5776 8.83839C16.6362 8.9677 16.6667 9.10802 16.6668 9.25001V18Z" fill="#8C8C8C"/>
</svg>
