<svg width="18" height="17" viewBox="0 0 18 17" fill="none" xmlns="http://www.w3.org/2000/svg">
<path d="M17.061 14.9611C16.5253 14.4835 16.0563 13.936 15.6666 13.3333C15.2407 12.5016 14.9857 11.593 14.9166 10.6611V7.91664C14.9141 7.58329 14.8844 7.2507 14.8277 6.92219C14.3903 6.83516 13.97 6.67755 13.5832 6.45553C13.7306 6.93046 13.8055 7.42491 13.8054 7.92219V10.6666C13.8728 11.8034 14.1856 12.9122 14.7221 13.9166C15.1058 14.5243 15.5609 15.0839 16.0777 15.5833H1.84989C2.36667 15.0839 2.82176 14.5243 3.20545 13.9166C3.742 12.9122 4.05472 11.8034 4.12211 10.6666V7.91664C4.11919 7.27369 4.24312 6.63647 4.4868 6.04148C4.73049 5.44649 5.08914 4.90542 5.54223 4.44923C5.99532 3.99304 6.53395 3.63071 7.12726 3.38298C7.72058 3.13525 8.35694 3.00698 8.99989 3.00553C9.94092 3.00595 10.8609 3.28426 11.6443 3.80553C11.558 3.48829 11.5095 3.16194 11.4999 2.83331V2.48331C10.9197 2.19814 10.2966 2.01044 9.65545 1.92775V1.22775C9.65545 1.03105 9.57731 0.842403 9.43822 0.703313C9.29913 0.564224 9.11048 0.486084 8.91378 0.486084C8.71708 0.486084 8.52843 0.564224 8.38934 0.703313C8.25025 0.842403 8.17211 1.03105 8.17211 1.22775V1.95553C6.7364 2.15806 5.42243 2.87316 4.47279 3.96882C3.52315 5.06448 3.00196 6.46672 3.00545 7.91664V10.6611C2.93631 11.593 2.6813 12.5016 2.25545 13.3333C1.8726 13.9346 1.41111 14.482 0.883225 14.9611C0.823965 15.0131 0.77647 15.0772 0.743901 15.1491C0.711332 15.2209 0.694436 15.2989 0.694336 15.3778V16.1333C0.694336 16.2806 0.752867 16.422 0.857054 16.5261C0.961241 16.6303 1.10255 16.6889 1.24989 16.6889H16.6943C16.8417 16.6889 16.983 16.6303 17.0872 16.5261C17.1914 16.422 17.2499 16.2806 17.2499 16.1333V15.3778C17.2498 15.2989 17.2329 15.2209 17.2003 15.1491C17.1678 15.0772 17.1203 15.0131 17.061 14.9611Z" fill="#8C8C8C"/>
</svg>
