<svg width="18" height="14" viewBox="0 0 18 14" fill="none" xmlns="http://www.w3.org/2000/svg">
<path fill-rule="evenodd" clip-rule="evenodd" d="M0.470011 7.52997C0.329561 7.38934 0.250671 7.19872 0.250671 6.99997C0.250671 6.80122 0.329561 6.61059 0.470011 6.46997L6.47001 0.469968C6.53867 0.396281 6.62147 0.337179 6.71347 0.296187C6.80547 0.255195 6.90479 0.233154 7.00549 0.231377C7.10619 0.229601 7.20622 0.248125 7.29961 0.285845C7.393 0.323566 7.47783 0.379712 7.54905 0.45093C7.62027 0.522149 7.67641 0.606983 7.71413 0.700371C7.75185 0.79376 7.77038 0.893787 7.7686 0.99449C7.76683 1.09519 7.74478 1.19451 7.70379 1.28651C7.6628 1.37851 7.6037 1.46131 7.53001 1.52997L2.81001 6.24997L17 6.24997C17.1989 6.24997 17.3897 6.32899 17.5303 6.46964C17.671 6.61029 17.75 6.80106 17.75 6.99997C17.75 7.19888 17.671 7.38965 17.5303 7.5303C17.3897 7.67095 17.1989 7.74997 17 7.74997L2.81001 7.74997L7.53001 12.47C7.6037 12.5386 7.6628 12.6214 7.70379 12.7134C7.74478 12.8054 7.76683 12.9047 7.7686 13.0054C7.77038 13.1061 7.75186 13.2062 7.71413 13.2996C7.67641 13.393 7.62027 13.4778 7.54905 13.549C7.47783 13.6202 7.393 13.6764 7.29961 13.7141C7.20622 13.7518 7.10619 13.7703 7.00549 13.7686C6.90479 13.7668 6.80547 13.7447 6.71347 13.7037C6.62147 13.6628 6.53867 13.6037 6.47001 13.53L0.470011 7.52997Z" fill="#151515"/>
</svg>
