<svg width="14" height="14" viewBox="0 0 14 14" fill="none" xmlns="http://www.w3.org/2000/svg">
<path d="M6.62787 3.39644C6.75305 3.27127 6.95559 3.26994 7.08239 3.39347L7.28035 3.5863C7.40931 3.71192 7.41091 3.91865 7.28392 4.04626L5.48469 5.8542C5.28163 6.05823 5.42615 6.40594 5.71401 6.40594H10.2276C10.4063 6.40594 10.5511 6.55079 10.5511 6.72947V7.00678C10.5511 7.18546 10.4063 7.33031 10.2276 7.33031H5.71736C5.42903 7.33031 5.28472 7.679 5.48873 7.88275L7.28529 9.67705C7.41186 9.80347 7.41182 10.0086 7.28519 10.135L7.08243 10.3373C6.95605 10.4634 6.75138 10.4633 6.62513 10.3371L3.38496 7.0969C3.25861 6.97055 3.25861 6.7657 3.38496 6.63936L6.62787 3.39644Z" fill="#054BB4"/>
<path d="M6.8529 13.339C5.57314 13.339 4.32212 12.9595 3.25804 12.2485C2.19396 11.5375 1.36461 10.5269 0.87487 9.34459C0.385128 8.16225 0.256989 6.86123 0.506657 5.60606C0.756326 4.35089 1.37259 3.19794 2.27752 2.29302C3.18244 1.38809 4.33539 0.771829 5.59056 0.52216C6.84573 0.272492 8.14674 0.400631 9.32909 0.890373C10.5114 1.38012 11.522 2.20947 12.233 3.27355C12.944 4.33763 13.3235 5.58865 13.3235 6.86841C13.3215 8.58391 12.6392 10.2286 11.4261 11.4416C10.2131 12.6547 8.56841 13.337 6.8529 13.339ZM6.8529 1.3222C5.75597 1.3222 4.68367 1.64748 3.7716 2.2569C2.85953 2.86633 2.14865 3.73253 1.72888 4.74597C1.3091 5.7594 1.19926 6.87456 1.41326 7.95042C1.62727 9.02628 2.15549 10.0145 2.93114 10.7902C3.70679 11.5658 4.69503 12.094 5.77089 12.308C6.84675 12.522 7.96191 12.4122 8.97535 11.9924C9.98878 11.5727 10.855 10.8618 11.4644 9.94972C12.0738 9.03765 12.3991 7.96534 12.3991 6.86841C12.3974 5.39799 11.8125 3.98828 10.7728 2.94854C9.73303 1.90879 8.32332 1.32391 6.8529 1.3222Z" fill="#054BB4"/>
</svg>
