<svg width="45" height="51" viewBox="0 0 45 51" fill="none" xmlns="http://www.w3.org/2000/svg">
<path fill-rule="evenodd" clip-rule="evenodd" d="M16.1133 3.19049V17.4839C16.1133 18.0199 16.1133 18.5623 16.0399 19.111C15.9719 19.5939 15.8623 20.0661 15.7113 20.5276C15.5358 21.0541 15.2965 21.539 15.0604 22.0272L10.2109 31.8858H34.7777L29.9919 22.1229L29.9345 22.008C29.6984 21.5231 29.4559 21.0381 29.2837 20.5117C29.1312 20.0505 29.0212 19.5763 28.955 19.0951C28.8817 18.5463 28.8817 18.0039 28.8817 17.4647V3.17135H16.1197L16.1133 3.19049ZM36.3729 35.0954H8.64756L5.54002 41.4126C4.61478 43.295 4.02135 44.5137 3.66401 45.4326C3.37687 46.176 3.36729 46.4536 3.3641 46.4918C3.39776 46.7015 3.47295 46.9024 3.58527 47.0826C3.69758 47.2629 3.84475 47.4189 4.01815 47.5415C4.05644 47.5575 4.30849 47.6691 5.10292 47.7393C6.09516 47.8318 7.45112 47.835 9.5377 47.835H35.4445C37.5438 47.835 38.8902 47.8318 39.8793 47.7393C40.6769 47.6691 40.9321 47.5575 40.964 47.5415C41.1378 47.4185 41.2852 47.262 41.3975 47.0812C41.5098 46.9004 41.5848 46.6989 41.6181 46.4886L41.6213 46.4791V46.4918C41.6213 46.4504 41.6053 46.1728 41.3214 45.4326C40.964 44.501 40.3706 43.2854 39.4454 41.4126L36.3378 35.0954H36.3729ZM32.0977 17.3563V3.19049H33.6897C34.1128 3.19049 34.5186 3.02242 34.8177 2.72325C35.1169 2.42409 35.285 2.01833 35.285 1.59525C35.285 1.17216 35.1169 0.766403 34.8177 0.467237C34.5186 0.16807 34.1128 0 33.6897 0L11.3563 0C10.9332 0 10.5274 0.16807 10.2283 0.467237C9.92911 0.766403 9.76104 1.17216 9.76104 1.59525C9.76104 2.01833 9.92911 2.42409 10.2283 2.72325C10.5274 3.02242 10.9332 3.19049 11.3563 3.19049H12.9356V17.3563C12.9356 18.0199 12.9356 18.3517 12.8909 18.6739C12.8526 18.9632 12.7867 19.2461 12.6931 19.5226C12.5402 19.9356 12.359 20.3374 12.1507 20.7254L2.67496 39.996C0.878711 43.6651 -0.0178171 45.4836 0.211898 46.9513C0.409709 48.2466 1.13714 49.4048 2.20915 50.1418C3.44387 51 5.49535 51 9.54728 51H35.4541C39.5379 51 41.5798 51 42.7922 50.1418C43.8706 49.392 44.5916 48.2338 44.7894 46.9513C45.016 45.4677 44.1194 43.6332 42.32 39.996L32.8442 20.7254C32.5507 20.1288 32.404 19.8321 32.3019 19.5194C32.2103 19.2431 32.144 18.9591 32.104 18.6708C32.0594 18.3453 32.0594 18.0135 32.0594 17.3499L32.0977 17.3563Z" fill="white"/>
</svg>
