<svg width="214" height="175" viewBox="0 0 214 175" fill="none" xmlns="http://www.w3.org/2000/svg">
<circle opacity="0.1" cx="107.716" cy="110.48" r="64.48" fill="#054BB4"/>
<circle cx="35.9569" cy="61.6" r="4.16" fill="#E6EDF7"/>
<circle cx="114.476" cy="16.36" r="8.84" fill="#E6EDF7"/>
<circle cx="194.037" cy="99.04" r="8.32" fill="#054BB4"/>
<path d="M159.31 11.7671L159.393 12.0024L159.629 12.0854L164.388 13.7593L159.629 15.4341L159.393 15.5171L159.31 15.7524L157.635 20.5122L155.962 15.7524L155.879 15.5171L155.643 15.4341L150.884 13.7593L155.643 12.0854L155.879 12.0024L155.962 11.7671L157.635 7.00732L159.31 11.7671Z" fill="#0066FF" stroke="#0066FF" stroke-width="1.04"/>
<path d="M29.356 81.9119C29.356 81.9119 27.6438 88.824 19.5343 89.1217C14.1279 89.3201 12.8561 83.7173 6.54059 87.5099C3.72802 89.1989 1.63647 94.3308 1.63647 94.3308" stroke="#0066FF" stroke-width="3.12" stroke-linecap="round"/>
<path d="M32.3162 121.92L35.3199 129.836L43.2362 132.84L35.3199 135.844L32.3162 143.76L29.3125 135.844L21.3962 132.84L29.3125 129.836L32.3162 121.92Z" fill="#054BB4"/>
<circle cx="104.597" cy="3.36003" r="1.56" fill="#F4BE00" stroke="#0066FF" stroke-width="1.04"/>
<path d="M39.4151 4.15274C40.4375 13.0406 61.0914 21.8992 61.5516 14.6276C62.2808 3.10482 34.426 12.089 72.428 27.1887" stroke="#054BB4" stroke-width="3.12" stroke-linecap="round"/>
<path d="M191.957 139.402C197.12 138.67 208.376 139.904 212.101 150.703" stroke="#E6EDF7" stroke-width="3.12" stroke-linecap="round"/>
<path d="M186.837 39.1021C186.837 39.1021 194.386 42.9425 197.55 39.5006C200.436 36.3609 197.099 31.4609 200.59 29.0124C203.432 27.0201 209.45 28.3324 209.45 28.3324" stroke="#054BB4" stroke-width="3.12" stroke-linecap="round"/>
<rect x="183.636" y="77.2" width="7.28" height="7.28" rx="2.08" fill="#054BB4"/>
<path d="M99.7568 66.2798C104.853 64.1687 110.58 64.1687 115.677 66.2798L133.343 73.5972C138.439 75.7083 142.489 79.7575 144.6 84.854L151.917 102.52C154.028 107.617 154.028 113.343 151.917 118.44L144.6 136.106C142.489 141.202 138.439 145.252 133.343 147.363L115.677 154.68C110.58 156.791 104.853 156.791 99.7568 154.68L82.0908 147.363C76.9943 145.252 72.9451 141.202 70.834 136.106L63.5166 118.44C61.4055 113.343 61.4055 107.617 63.5166 102.52L70.834 84.854C72.9451 79.7575 76.9943 75.7083 82.0908 73.5972L99.7568 66.2798Z" fill="#F5F5FF" stroke="#054BB4" stroke-width="8.32"/>
<path fill-rule="evenodd" clip-rule="evenodd" d="M120.072 97.8754C120.654 97.2983 121.44 96.9735 122.26 96.9712C123.08 96.969 123.867 97.2894 124.453 97.8633C125.038 98.4372 125.374 99.2184 125.388 100.038C125.402 100.858 125.093 101.65 124.527 102.243L107.921 123.002C107.635 123.309 107.291 123.556 106.908 123.727C106.525 123.898 106.111 123.991 105.692 123.998C105.273 124.006 104.856 123.929 104.467 123.772C104.078 123.615 103.724 123.382 103.428 123.085L92.4247 112.078C92.1181 111.792 91.8723 111.448 91.7017 111.065C91.5312 110.682 91.4395 110.269 91.4321 109.85C91.4247 109.431 91.5018 109.015 91.6587 108.627C91.8156 108.238 92.0492 107.885 92.3455 107.589C92.6417 107.293 92.9946 107.059 93.3831 106.902C93.7716 106.745 94.1878 106.668 94.6067 106.675C95.0256 106.683 95.4387 106.775 95.8215 106.945C96.2042 107.116 96.5486 107.362 96.8343 107.668L105.545 116.375L119.993 97.9669C120.019 97.9347 120.047 97.9041 120.076 97.8754H120.072Z" fill="#054BB4"/>
</svg>
