<svg width="18" height="13" viewBox="0 0 18 13" fill="none" xmlns="http://www.w3.org/2000/svg">
<path d="M17.84 10.94V1.94C17.84 1.11 17.17 0.440002 16.34 0.440002H2.33002C1.50002 0.440002 0.830017 1.11 0.830017 1.94V10.94C0.830017 11.77 1.50002 12.44 2.33002 12.44H16.34C17.17 12.44 17.84 11.77 17.84 10.94ZM16.53 1.83C16.86 2.16 16.68 2.5 16.5 2.67L12.44 6.39L16.34 10.45C16.46 10.59 16.54 10.81 16.4 10.96C16.27 11.12 15.97 11.11 15.84 11.01L11.47 7.28L9.33002 9.23L7.20002 7.28L2.83002 11.01C2.70002 11.11 2.40002 11.12 2.27002 10.96C2.13002 10.81 2.21002 10.59 2.33002 10.45L6.23002 6.39L2.17002 2.67C1.99002 2.5 1.81002 2.16 2.14002 1.83C2.47002 1.5 2.81002 1.66 3.09002 1.9L9.33002 6.94L15.58 1.9C15.86 1.66 16.2 1.5 16.53 1.83Z" fill="#151515"/>
</svg>
