<svg width="41" height="43" viewBox="0 0 41 43" fill="none" xmlns="http://www.w3.org/2000/svg">
<path d="M23.7124 11.0835H25.7957C26.3482 11.0835 26.8781 11.303 27.2688 11.6937C27.6595 12.0844 27.879 12.6143 27.879 13.1668V15.2501C27.879 15.8027 28.0985 16.3326 28.4892 16.7233C28.8799 17.114 29.4098 17.3335 29.9624 17.3335C30.5149 17.3335 31.0448 17.114 31.4355 16.7233C31.8262 16.3326 32.0457 15.8027 32.0457 15.2501V13.1668C32.0441 11.5097 31.385 9.92095 30.2133 8.74921C29.0416 7.57747 27.4528 6.91845 25.7957 6.9168H23.7124C23.1598 6.9168 22.6299 7.13629 22.2392 7.52699C21.8485 7.9177 21.629 8.4476 21.629 9.00013C21.629 9.55267 21.8485 10.0826 22.2392 10.4733C22.6299 10.864 23.1598 11.0835 23.7124 11.0835ZM15.379 29.8335H13.2957C12.7432 29.8335 12.2133 29.614 11.8226 29.2233C11.4319 28.8326 11.2124 28.3027 11.2124 27.7501V25.6668C11.2124 25.1143 10.9929 24.5844 10.6022 24.1937C10.2115 23.803 9.68157 23.5835 9.12904 23.5835C8.57651 23.5835 8.0466 23.803 7.6559 24.1937C7.2652 24.5844 7.04571 25.1143 7.04571 25.6668V27.7501C7.04736 29.4072 7.70637 30.996 8.87812 32.1677C10.0499 33.3395 11.6386 33.9985 13.2957 34.0001H15.379C15.9316 34.0001 16.4615 33.7806 16.8522 33.3899C17.2429 32.9992 17.4624 32.4693 17.4624 31.9168C17.4624 31.3643 17.2429 30.8344 16.8522 30.4437C16.4615 30.053 15.9316 29.8335 15.379 29.8335ZM38.2957 27.7501C38.8482 27.7501 39.3781 27.5306 39.7688 27.1399C40.1595 26.7492 40.379 26.2193 40.379 25.6668C40.379 25.1143 40.1595 24.5844 39.7688 24.1937C39.3781 23.803 38.8482 23.5835 38.2957 23.5835H32.0457V22.5418C32.0457 21.9893 31.8262 21.4594 31.4355 21.0687C31.0448 20.678 30.5149 20.4585 29.9624 20.4585C29.4098 20.4585 28.8799 20.678 28.4892 21.0687C28.0985 21.4594 27.879 21.9893 27.879 22.5418V23.5835H21.629C21.0765 23.5835 20.5466 23.803 20.1559 24.1937C19.7652 24.5844 19.5457 25.1143 19.5457 25.6668C19.5457 26.2193 19.7652 26.7492 20.1559 27.1399C20.5466 27.5306 21.0765 27.7501 21.629 27.7501H32.429C31.9598 29.6656 31.09 31.4598 29.877 33.0147C29.3807 32.3716 28.9415 31.6863 28.5645 30.9668C28.4446 30.7152 28.2755 30.4901 28.0671 30.3051C27.8587 30.12 27.6154 29.9786 27.3513 29.8892C27.0873 29.7999 26.8081 29.7644 26.5301 29.785C26.2522 29.8055 25.9812 29.8816 25.7332 30.0087C25.4851 30.1359 25.2652 30.3115 25.0862 30.5252C24.9073 30.7389 24.7731 30.9863 24.6915 31.2528C24.6099 31.5193 24.5826 31.7995 24.6113 32.0767C24.6399 32.3539 24.7239 32.6226 24.8582 32.8668C25.4201 33.951 26.0902 34.9757 26.8582 35.9251C25.3466 37.0239 23.6268 37.8029 21.804 38.2147C21.2642 38.3327 20.7934 38.6603 20.4951 39.1254C20.1968 39.5905 20.0954 40.1551 20.2134 40.6949C20.3314 41.2347 20.659 41.7056 21.1241 42.0039C21.5892 42.3022 22.1538 42.4035 22.6936 42.2855C25.3084 41.7096 27.7609 40.5549 29.8707 38.9064C31.9989 40.5556 34.4677 41.7099 37.0978 42.2855C37.6376 42.4043 38.2025 42.3038 38.6682 42.0061C39.134 41.7084 39.4623 41.2379 39.5811 40.6981C39.6999 40.1582 39.5994 39.5933 39.3017 39.1276C39.004 38.6619 38.5335 38.3335 37.9936 38.2147C36.1595 37.8084 34.4263 37.036 32.8978 35.9439C34.8243 33.5728 36.1232 30.755 36.6749 27.7501H38.2957ZM13.3582 19.923C13.4957 20.4556 13.8381 20.9121 14.3108 21.1931C14.7835 21.4742 15.3482 21.5569 15.8817 21.4233C16.4152 21.2896 16.8741 20.9505 17.1586 20.4797C17.443 20.009 17.5297 19.445 17.3999 18.9105L13.7395 4.26472C13.4826 3.23637 12.8893 2.32343 12.0539 1.67105C11.2185 1.01867 10.189 0.664307 9.12904 0.664307C8.0691 0.664307 7.03958 1.01867 6.20419 1.67105C5.36881 2.32343 4.7755 3.23637 4.51862 4.26472L0.858207 18.9105C0.728378 19.445 0.815124 20.009 1.09953 20.4797C1.38393 20.9505 1.84292 21.2896 2.37639 21.4233C2.90987 21.5569 3.47454 21.4742 3.94727 21.1931C4.42 20.9121 4.76242 20.4556 4.89987 19.923L6.06654 15.2501H12.1915L13.3582 19.923ZM7.10821 11.0835L8.56237 5.27722C8.60607 5.16231 8.68366 5.0634 8.78487 4.9936C8.88607 4.92381 9.0061 4.88644 9.12904 4.88644C9.25198 4.88644 9.37201 4.92381 9.47321 4.9936C9.57442 5.0634 9.65201 5.16231 9.69571 5.27722L11.1478 11.0835H7.10821Z" fill="#8E24AA"/>
</svg>
