<svg width="51" height="51" viewBox="0 0 51 51" fill="none" xmlns="http://www.w3.org/2000/svg">
<path d="M45.8123 26.542C45.8123 15.3242 36.7175 6.22949 25.4998 6.22949C14.282 6.22949 5.18726 15.3242 5.18726 26.542C5.18726 37.7598 14.282 46.8545 25.4998 46.8545C36.7175 46.8545 45.8123 37.7598 45.8123 26.542Z" stroke="#007B55" stroke-width="1.466" stroke-miterlimit="10"/>
<path d="M44.0126 18.3526C42.4443 18.3624 42.5986 21.2559 40.6445 19.8907C39.9189 19.3848 39.4726 18.6495 38.5615 18.4259C37.7656 18.2305 36.9501 18.4337 36.164 18.5694C35.2705 18.7237 34.2109 18.793 33.5332 19.4698C32.8779 20.1212 32.5312 20.9952 31.8339 21.6505C30.4853 22.92 29.916 24.3057 30.789 26.1007C31.6289 27.8262 33.3857 28.7628 35.2812 28.6397C37.1435 28.5157 39.0781 27.4356 39.0244 30.1417C39.0048 31.0987 39.205 31.7628 39.499 32.6524C39.7714 33.4727 39.7529 34.2677 39.8154 35.1143C39.9306 36.6964 40.2216 38.4698 41.0068 39.8673L42.4716 37.8009C42.6523 37.545 43.0302 37.1866 43.1201 36.8848C43.2792 36.3507 42.9658 35.4327 42.9296 34.8341C42.8935 34.2354 42.9111 33.629 42.8193 33.0303C42.6904 32.1915 42.1943 31.4054 42.1259 30.5763C42 29.0323 42.2822 27.7999 41.0927 26.5089C39.9443 25.2638 38.2607 24.9649 36.6523 25.2179C35.8417 25.3448 32.5791 25.8663 33.8886 24.0137C34.1474 23.6495 34.5996 23.3507 34.8906 23.004C35.1435 22.7022 35.3632 22.1475 35.6601 21.9122C35.957 21.6768 37.3203 21.4063 37.7109 21.5264C38.1015 21.6466 38.5087 22.21 38.8476 22.46C39.4737 22.9316 40.2043 23.2451 40.9775 23.3741C42.3115 23.5694 45.1005 22.794 45.0791 21.0831C45.0751 20.2628 44.3134 19.1202 44.0126 18.3526ZM28.5712 32.4307C28.0507 30.2393 25.0732 29.5069 23.4677 28.3184C22.5449 27.6348 21.7236 26.5792 20.5117 26.4932C19.9531 26.4532 19.4853 26.5743 18.9316 26.4307C18.4238 26.2999 18.0253 26.0264 17.4843 26.0977C16.4736 26.2305 15.8359 27.3106 14.7499 27.1641C13.7197 27.0255 12.6582 25.8204 12.4238 24.8389C12.123 23.5772 13.121 23.168 14.1904 23.0557C14.6367 23.0089 15.1376 22.9581 15.5664 23.1212C16.1308 23.3311 16.3974 23.8839 16.9042 24.1632C17.8544 24.6837 18.0468 23.8516 17.9013 23.0079C17.6835 21.7442 17.4296 21.2286 18.5566 20.3595C19.3378 19.7598 20.0058 19.3262 19.8808 18.2491C19.8066 17.6163 19.4599 17.3302 19.7832 16.7003C20.0283 16.2208 20.7011 15.7882 21.1396 15.502C22.2714 14.7637 25.9882 14.8184 24.4697 12.752C24.0234 12.1456 23.2001 11.0616 22.4189 10.9132C21.4423 10.7286 21.0087 11.8184 20.3281 12.2989C19.6249 12.796 18.2558 13.3604 17.5517 12.5919C16.6044 11.5577 18.1796 11.2178 18.5283 10.4962C18.8769 9.77449 17.7207 8.41023 17.1015 8.06453L14.1904 11.3292C14.1068 11.8759 14.1359 12.434 14.2759 12.969C14.416 13.5041 14.664 14.0049 15.0048 14.4405C15.5839 15.1856 16.5058 15.4249 16.5478 16.4425C16.5888 17.419 16.4365 17.919 15.7978 18.6055C15.5214 18.8985 15.3261 19.3145 15.0449 19.5889C14.7001 19.9239 14.8281 19.8214 14.29 19.9132C13.2783 20.0841 12.4169 20.3477 11.4394 20.6173C9.8105 21.0675 9.66011 18.4063 8.91792 17.3624L6.47651 19.3341C6.45014 19.6573 6.8769 20.252 6.99311 20.6036C7.66011 22.6124 9.00581 24.1661 9.87495 26.088C10.79 28.1231 13.247 27.5587 14.332 29.3419C15.2949 30.9239 14.2666 32.9268 14.9873 34.5831C15.5107 35.7852 16.7451 36.0479 17.5966 36.9268C18.4667 37.8145 18.4482 39.0294 18.581 40.1847C18.7307 41.5435 18.9738 42.8904 19.3085 44.2159C19.4267 44.6739 19.5351 45.2794 19.8486 45.6573C20.0634 45.9171 20.8007 46.1407 20.5029 46.2266C20.9189 46.295 21.6601 46.6837 22.0068 46.3985C22.4638 46.0235 22.3417 44.8692 22.4208 44.3477C22.6582 42.795 23.4355 41.2764 24.4843 40.1143C25.5205 38.9679 26.9404 38.1915 27.8154 36.8917C28.6679 35.6241 28.9248 33.9141 28.5712 32.4307ZM25.3105 35.0011C24.7246 36.047 23.4199 36.7471 22.581 37.5782C22.3535 37.8038 21.8691 38.585 21.5839 38.4161C21.3798 38.295 21.3105 37.2813 21.2353 37.0489C20.8474 35.8785 20.1068 34.8569 19.1152 34.1241C18.8095 33.8927 18.0517 33.5919 17.8769 33.2745C17.6816 32.9298 17.8574 32.1163 17.8642 31.7413C17.875 31.1944 17.6259 30.2852 17.7607 29.7882C17.9169 29.2149 17.6162 29.5606 18.1289 29.4473C18.3994 29.3868 19.5166 29.5831 19.8535 29.6534C20.3886 29.7647 20.6835 30.0977 21.1054 30.4346C22.2148 31.3243 23.4365 32.0128 24.6796 32.6944C25.6425 33.2276 25.9257 33.9024 25.3105 35.0011ZM18.5136 8.09382C18.9765 8.54597 19.4121 9.08113 20.1025 9.12605C20.7558 9.17 21.372 8.81648 21.9423 9.26082C22.5751 9.7491 23.0312 10.3673 23.871 10.5196C24.6835 10.6671 25.5439 10.1925 25.7451 9.3614C25.9404 8.56941 25.5195 7.70808 25.4941 6.91316C25.4941 6.80281 25.5537 6.31257 25.4775 6.22957C25.4208 6.16707 24.9482 6.23738 24.8759 6.23933C24.3466 6.25496 23.8186 6.29142 23.2919 6.34871C21.3719 6.55653 19.4914 7.03831 17.708 7.77937C17.9453 7.94343 18.2431 8.00886 18.5136 8.09382ZM35.3046 13.5802C36.1337 13.5802 36.9755 13.2091 36.708 12.2501C36.4833 11.4464 36.1005 10.5743 35.1689 11.0079C34.5761 11.2833 33.7363 11.9845 33.6669 12.6798C33.5878 13.4688 34.7519 13.5802 35.3046 13.5802ZM34.6425 17.7764C35.4892 18.2833 36.7451 18.045 37.3837 17.3214C37.8828 16.755 38.1767 15.7716 39.0742 15.7725C39.4693 15.7717 39.8488 15.9264 40.1308 16.2032C40.5019 16.587 40.4287 16.9473 40.5078 17.4278C40.6845 18.5069 41.8417 17.4893 42.1435 17.0714C42.3388 16.7989 42.6035 16.3946 42.5146 16.0401C42.4326 15.7091 42.0459 15.3565 41.874 15.0528C41.372 14.1739 40.9589 13.1514 40.207 12.4415C39.4834 11.7579 38.5937 11.837 37.9072 12.547C37.3447 13.1329 36.6914 13.5968 36.3066 14.3096C36.0351 14.8106 35.7294 15.0499 35.1796 15.1798C34.8769 15.2511 34.5312 15.2774 34.2773 15.4805C33.5703 16.0372 33.9726 17.3741 34.6425 17.7764Z" fill="#007B55"/>
</svg>
