<svg width="14" height="14" viewBox="0 0 14 14" fill="none" xmlns="http://www.w3.org/2000/svg">
<path d="M7.46032 3.39657C7.33515 3.27139 7.13261 3.27006 7.0058 3.39359L6.80785 3.58642C6.67889 3.71204 6.67729 3.91878 6.80428 4.04638L8.60351 5.85432C8.80656 6.05836 8.66205 6.40606 8.37419 6.40606H3.86059C3.68191 6.40606 3.53706 6.55091 3.53706 6.72959V7.0069C3.53706 7.18558 3.68191 7.33043 3.86059 7.33043H8.37084C8.65917 7.33043 8.80347 7.67912 8.59946 7.88288L6.80291 9.67718C6.67633 9.80359 6.67638 10.0087 6.803 10.1351L7.00576 10.3374C7.13215 10.4636 7.33681 10.4634 7.46306 10.3372L10.7032 7.09702C10.8296 6.97067 10.8296 6.76583 10.7032 6.63948L7.46032 3.39657Z" fill="white"/>
<path d="M7.23523 13.3391C8.51499 13.3391 9.76601 12.9596 10.8301 12.2486C11.8942 11.5376 12.7235 10.5271 13.2133 9.34471C13.703 8.16237 13.8311 6.86135 13.5815 5.60618C13.3318 4.35101 12.7155 3.19807 11.8106 2.29314C10.9057 1.38821 9.75275 0.771951 8.49758 0.522282C7.24241 0.272614 5.94139 0.400753 4.75905 0.890495C3.5767 1.38024 2.56614 2.20959 1.85514 3.27367C1.14415 4.33775 0.764654 5.58877 0.764654 6.86853C0.766611 8.58403 1.44896 10.2287 2.662 11.4418C3.87505 12.6548 5.51973 13.3371 7.23523 13.3391ZM7.23523 1.32232C8.33217 1.32232 9.40447 1.6476 10.3165 2.25702C11.2286 2.86645 11.9395 3.73265 12.3593 4.74609C12.779 5.75952 12.8889 6.87468 12.6749 7.95054C12.4609 9.0264 11.9326 10.0146 11.157 10.7903C10.3813 11.5659 9.3931 12.0942 8.31724 12.3082C7.24138 12.5222 6.12623 12.4123 5.11279 11.9926C4.09935 11.5728 3.23315 10.8619 2.62373 9.94984C2.0143 9.03777 1.68902 7.96547 1.68902 6.86853C1.69073 5.39811 2.27561 3.9884 3.31536 2.94866C4.35511 1.90891 5.76481 1.32403 7.23523 1.32232Z" fill="white"/>
</svg>
