<svg width="19" height="19" viewBox="0 0 19 19" fill="none" xmlns="http://www.w3.org/2000/svg">
<path d="M4.46003 7.83004C5.90003 10.66 8.22003 12.97 11.05 14.42L13.25 12.22C13.52 11.95 13.92 11.86 14.27 11.98C15.39 12.35 16.6 12.55 17.84 12.55C18.39 12.55 18.84 13 18.84 13.55V17.04C18.84 17.59 18.39 18.04 17.84 18.04C8.45003 18.04 0.840027 10.43 0.840027 1.04004C0.840027 0.490039 1.29003 0.0400391 1.84003 0.0400391H5.34003C5.89003 0.0400391 6.34003 0.490039 6.34003 1.04004C6.34003 2.29004 6.54003 3.49004 6.91003 4.61004C7.02003 4.96004 6.94003 5.35004 6.66003 5.63004L4.46003 7.83004Z" fill="#054BB4"/>
</svg>
