<svg width="41" height="41" viewBox="0 0 41 41" fill="none" xmlns="http://www.w3.org/2000/svg">
<path d="M20.4997 7.56868C22.9736 9.37247 25.3016 11.3682 27.4622 13.5374C29.6314 15.698 31.6272 18.0261 33.4309 20.4999M20.4997 7.56868C18.0258 9.37247 15.6978 11.3682 13.5372 13.5374C11.368 15.698 9.37222 18.0261 7.56844 20.4999M20.4997 7.56868C27.9372 2.18535 34.9726 0.164514 37.9039 3.09576C40.8351 6.02701 38.8143 13.0624 33.4309 20.4999M33.4309 20.4999C38.8143 27.9374 40.8351 34.9729 37.9039 37.9041C35.7309 40.077 31.2997 39.5291 26.1247 36.9041M33.4309 20.4999C31.6272 22.9738 29.6314 25.3018 27.4622 27.4624C25.3016 29.6316 22.9736 31.6274 20.4997 33.4312M7.56844 20.4999C9.37222 22.9738 11.368 25.3018 13.5372 27.4624C15.6978 29.6316 18.0258 31.6274 20.4997 33.4312M7.56844 20.4999C2.1851 27.9374 0.164269 34.9729 3.09552 37.9041C6.02677 40.8354 13.0622 38.8145 20.4997 33.4312M7.56844 20.4999C2.18719 13.0624 0.166353 6.02701 3.09552 3.09576C5.26844 0.922847 9.69969 1.47076 14.8747 4.09576" stroke="#455A64" stroke-width="3.11526" stroke-linecap="round" stroke-linejoin="round"/>
<path d="M20.4999 24.6667C22.8011 24.6667 24.6666 22.8012 24.6666 20.5C24.6666 18.1989 22.8011 16.3334 20.4999 16.3334C18.1987 16.3334 16.3333 18.1989 16.3333 20.5C16.3333 22.8012 18.1987 24.6667 20.4999 24.6667Z" stroke="#455A64" stroke-width="3.11526" stroke-linecap="round" stroke-linejoin="round"/>
</svg>
