<svg width="31" height="51" viewBox="0 0 31 51" fill="none" xmlns="http://www.w3.org/2000/svg">
<path d="M0.750812 50.3682V49.139C0.750812 43.4111 1.90787 38.9566 4.22198 35.7756C6.53609 32.5945 9.6721 29.1692 13.63 25.4997C9.63933 21.8319 6.48692 18.4066 4.17281 15.2239C1.8587 12.0412 0.702464 7.58667 0.704103 1.86039V0.631226H3.16244V1.86039C3.16244 2.68967 3.18866 3.48043 3.2411 4.23268C3.29191 4.98493 3.38533 5.70768 3.52135 6.40093H27.4336C27.5696 5.70768 27.663 4.98493 27.7138 4.23268C27.7663 3.48207 27.7925 2.69131 27.7925 1.86039V0.631226H30.2508V1.86039C30.2508 7.58831 29.0938 12.0428 26.7796 15.2239C24.4655 18.405 21.3303 21.8303 17.3741 25.4997C21.3336 29.1381 24.4704 32.5551 26.7846 35.751C29.0987 38.9468 30.2541 43.4087 30.2508 49.1366V50.3658H27.7925V49.1366C27.7925 48.309 27.7663 47.519 27.7138 46.7668C27.663 46.0145 27.5696 45.2918 27.4336 44.5985H3.56806C3.43367 45.2918 3.34026 46.0145 3.28781 46.7668C3.23537 47.519 3.20914 48.3098 3.20914 49.139V50.3682H0.750812ZM7.48419 15.6664H23.4707C24.2246 14.6667 24.8982 13.612 25.4915 12.5025C26.0848 11.393 26.5617 10.1786 26.9222 8.85927H4.03269C4.42274 10.1704 4.89884 11.375 5.46098 12.473C6.02312 13.5711 6.6967 14.6355 7.48173 15.6664M15.5008 23.8649C16.6038 22.8521 17.6469 21.8712 18.6303 20.9223C19.6136 19.975 20.5322 19.0425 21.3861 18.1247H9.5664C10.4219 19.0425 11.3487 19.975 12.3468 20.9223C13.3465 21.8729 14.3978 22.8529 15.5008 23.8625M9.61556 32.8747H21.3861C20.5322 31.9569 19.6136 31.0244 18.6303 30.0771C17.6469 29.1266 16.6038 28.1457 15.5008 27.1345C14.3978 28.1474 13.3547 29.1282 12.3714 30.0771C11.388 31.0244 10.4694 31.9569 9.61556 32.8747ZM4.0794 42.1426H26.9222C26.5322 40.8315 26.0561 39.6261 25.4939 38.5264C24.9318 37.4267 24.2574 36.3623 23.4707 35.3331H7.5309C6.74423 36.3639 6.06245 37.4259 5.48556 38.5191C4.90703 39.6138 4.43831 40.8209 4.0794 42.1402" fill="white"/>
</svg>
